<svg xmlns="http://www.w3.org/2000/svg" width="39.02" height="37" viewBox="0 0 39.02 37">
  <g id="sustainability-icon" transform="translate(-5.98 -8.26)">
    <path id="Path_82" data-name="Path 82" d="M44.034,41.414a3.3,3.3,0,0,0-4.663,0l-5.022,5.022a3.27,3.27,0,0,0-.857-.408l-.04-.011a3.353,3.353,0,0,0-.387-.089l-.1-.016a3.28,3.28,0,0,0-.449-.034h0l-15.141,0a5.223,5.223,0,0,0-3.643,1.478L6.24,54.847a.887.887,0,0,0,0,1.254l6.821,6.822a.886.886,0,0,0,1.254,0l3.213-3.214H29.039a3.273,3.273,0,0,0,2.331-.966L44.034,46.079a3.3,3.3,0,0,0,0-4.665ZM42.78,44.825,30.116,57.489a1.516,1.516,0,0,1-1.08.446H17.16a.887.887,0,0,0-.627.26l-2.845,2.846L8.12,55.474l6.854-6.849a3.449,3.449,0,0,1,2.4-.971l15.141,0a1.514,1.514,0,0,1,1.174.568c.014.017.031.03.046.046A1.523,1.523,0,0,1,32.52,50.7H24.166a.886.886,0,1,0,0,1.773H32.52A3.275,3.275,0,0,0,35.5,47.792l5.125-5.124a1.561,1.561,0,0,1,2.156,0,1.524,1.524,0,0,1,0,2.157Z" transform="translate(0 -17.922)" fill="#046ebb"/>
    <path id="Path_83" data-name="Path 83" d="M42.831,25.058a.868.868,0,0,0,.108-.01c.024,0,.047.008.071.009l.207,0a11.319,11.319,0,0,0,11.32-11.527.887.887,0,0,0-.87-.871,11.167,11.167,0,0,0-6.9,2.184,11.232,11.232,0,0,0-3.318-6.335.886.886,0,0,0-1.231,0,11.32,11.32,0,0,0,0,16.3A.886.886,0,0,0,42.831,25.058Zm7.138-4.569a9.449,9.449,0,0,1-5.1,2.654,11.2,11.2,0,0,0,2.03-6.1,9.455,9.455,0,0,1,5.838-2.591A9.466,9.466,0,0,1,49.969,20.489ZM42.831,10.435a9.551,9.551,0,0,1,0,12.448,9.548,9.548,0,0,1,0-12.448Z" transform="translate(-18.247)" fill="#046ebb"/>
  </g>
</svg>
