<svg xmlns="http://www.w3.org/2000/svg" width="37.357" height="46.231" viewBox="0 0 37.357 46.231">
  <g id="noun_cold_storage_2569342" data-name="noun_cold storage_2569342" transform="translate(-6.533 -4.525)">
    <g id="Group_78" data-name="Group 78" transform="translate(0 4.9)">
      <g id="Group_76" data-name="Group 76" transform="translate(6.908)">
        <g id="Group_57" data-name="Group 57" transform="translate(4.201 4.453)">
          <g id="Group_33" data-name="Group 33" transform="translate(7.396 2.505)">
            <path id="Path_29" data-name="Path 29" d="M37.255,22.33a.56.56,0,0,1-.555-.555V19.255a.555.555,0,1,1,1.109,0v2.521A.56.56,0,0,1,37.255,22.33Z" transform="translate(-36.7 -18.7)" fill="#046ebb" stroke="#046ebb" stroke-width="0.75"/>
          </g>
          <g id="Group_34" data-name="Group 34" transform="translate(7.396 9.716)">
            <path id="Path_30" data-name="Path 30" d="M39.07,39.152a.751.751,0,0,1-.454-.2L36.8,36.378a.717.717,0,0,1-.1-.3V33.555a.555.555,0,1,1,1.109,0v2.319l1.714,2.42a.565.565,0,0,1-.151.756A.37.37,0,0,1,39.07,39.152Z" transform="translate(-36.7 -33)" fill="#046ebb" stroke="#046ebb" stroke-width="0.75"/>
          </g>
          <g id="Group_35" data-name="Group 35" transform="translate(5.597 12.202)">
            <path id="Path_31" data-name="Path 31" d="M33.67,41.6a.717.717,0,0,1-.3-.1.555.555,0,0,1-.151-.756l1.815-2.572a.545.545,0,1,1,.908.605l-1.815,2.572A.441.441,0,0,1,33.67,41.6Z" transform="translate(-33.131 -37.931)" fill="#046ebb" stroke="#046ebb" stroke-width="0.75"/>
          </g>
          <g id="Group_36" data-name="Group 36" transform="translate(7.412)">
            <path id="Path_32" data-name="Path 32" d="M37.27,17.4a.717.717,0,0,1-.3-.1.555.555,0,0,1-.151-.756l1.815-2.572a.545.545,0,0,1,.908.605l-1.815,2.572A.6.6,0,0,1,37.27,17.4Z" transform="translate(-36.731 -13.731)" fill="#046ebb" stroke="#046ebb" stroke-width="0.75"/>
          </g>
          <g id="Group_37" data-name="Group 37" transform="translate(5.597 0.05)">
            <path id="Path_33" data-name="Path 33" d="M35.485,17.446a.751.751,0,0,1-.454-.2l-1.815-2.572a.545.545,0,1,1,.908-.605l1.815,2.572a.565.565,0,0,1-.151.756C35.687,17.4,35.586,17.446,35.485,17.446Z" transform="translate(-33.131 -13.831)" fill="#046ebb" stroke="#046ebb" stroke-width="0.75"/>
          </g>
          <g id="Group_43" data-name="Group 43" transform="translate(0 5.546)">
            <g id="Group_38" data-name="Group 38" transform="translate(9.716 1.799)">
              <path id="Path_34" data-name="Path 34" d="M44.376,29.409H41.855a.555.555,0,0,1,0-1.109h2.521a.555.555,0,0,1,0,1.109Z" transform="translate(-41.3 -28.3)" fill="#046ebb" stroke="#046ebb" stroke-width="0.75"/>
            </g>
            <g id="Group_39" data-name="Group 39" transform="translate(0 1.85)">
              <path id="Path_35" data-name="Path 35" d="M22.57,31.274a.751.751,0,0,1-.454-.2.565.565,0,0,1,.151-.756L24.839,28.5a.717.717,0,0,1,.3-.1h2.521a.555.555,0,0,1,0,1.109H25.343l-2.42,1.714A.984.984,0,0,1,22.57,31.274Z" transform="translate(-22.031 -28.4)" fill="#046ebb" stroke="#046ebb" stroke-width="0.75"/>
            </g>
            <g id="Group_40" data-name="Group 40">
              <path id="Path_36" data-name="Path 36" d="M25.142,27.64a.717.717,0,0,1-.3-.1l-2.572-1.815a.545.545,0,0,1,.605-.908l2.572,1.815a.555.555,0,0,1,.151.756A.483.483,0,0,1,25.142,27.64Z" transform="translate(-22.031 -24.731)" fill="#046ebb" stroke="#046ebb" stroke-width="0.75"/>
            </g>
            <g id="Group_41" data-name="Group 41" transform="translate(12.253 1.815)">
              <path id="Path_37" data-name="Path 37" d="M49.442,31.24a.717.717,0,0,1-.3-.1l-2.572-1.815a.545.545,0,0,1,.605-.908l2.572,1.815a.555.555,0,0,1,.151.756A.483.483,0,0,1,49.442,31.24Z" transform="translate(-46.331 -28.331)" fill="#046ebb" stroke="#046ebb" stroke-width="0.75"/>
            </g>
            <g id="Group_42" data-name="Group 42" transform="translate(12.253 0.05)">
              <path id="Path_38" data-name="Path 38" d="M46.87,27.69a.751.751,0,0,1-.454-.2.565.565,0,0,1,.151-.756l2.572-1.815a.545.545,0,1,1,.605.908l-2.572,1.815A.64.64,0,0,1,46.87,27.69Z" transform="translate(-46.331 -24.831)" fill="#046ebb" stroke="#046ebb" stroke-width="0.75"/>
            </g>
          </g>
          <g id="Group_49" data-name="Group 49" transform="translate(0.884 0.935)">
            <g id="Group_44" data-name="Group 44" transform="translate(8.227 8.126)">
              <path id="Path_39" data-name="Path 39" d="M42.369,34.524a.458.458,0,0,1-.353-.151l-1.765-1.765a.535.535,0,1,1,.756-.756l1.765,1.765a.548.548,0,0,1,0,.756A.671.671,0,0,1,42.369,34.524Z" transform="translate(-40.1 -31.7)" fill="#046ebb" stroke="#046ebb" stroke-width="0.75"/>
            </g>
            <g id="Group_45" data-name="Group 45" transform="translate(0 2.521)">
              <path id="Path_40" data-name="Path 40" d="M29.036,23.819a.458.458,0,0,1-.353-.151l-1.513-1.513-2.925-.5a.535.535,0,0,1,.151-1.059l3.076.555a.436.436,0,0,1,.3.151l1.614,1.614a.548.548,0,0,1,0,.756A.393.393,0,0,1,29.036,23.819Z" transform="translate(-23.785 -20.585)" fill="#046ebb" stroke="#046ebb" stroke-width="0.75"/>
            </g>
            <g id="Group_46" data-name="Group 46" transform="translate(2.572)">
              <path id="Path_41" data-name="Path 41" d="M29.951,19.727a.536.536,0,0,1-.5-.454L28.892,16.2a.535.535,0,0,1,1.059-.151l.555,3.076a.521.521,0,0,1-.454.605Z" transform="translate(-28.885 -15.585)" fill="#046ebb" stroke="#046ebb" stroke-width="0.75"/>
            </g>
            <g id="Group_47" data-name="Group 47" transform="translate(9.984 9.933)">
              <path id="Path_42" data-name="Path 42" d="M44.651,39.427a.536.536,0,0,1-.5-.454L43.592,35.9a.535.535,0,0,1,1.059-.151l.555,3.076a.521.521,0,0,1-.454.605Z" transform="translate(-43.585 -35.285)" fill="#046ebb" stroke="#046ebb" stroke-width="0.75"/>
            </g>
            <g id="Group_48" data-name="Group 48" transform="translate(9.933 9.883)">
              <path id="Path_43" data-name="Path 43" d="M47.123,36.806h-.1l-3.076-.555a.535.535,0,0,1,.151-1.059l3.076.555a.521.521,0,0,1,.454.605A.5.5,0,0,1,47.123,36.806Z" transform="translate(-43.485 -35.185)" fill="#046ebb" stroke="#046ebb" stroke-width="0.75"/>
            </g>
          </g>
          <g id="Group_55" data-name="Group 55" transform="translate(0.935 0.935)">
            <g id="Group_50" data-name="Group 50" transform="translate(8.176 3.084)">
              <path id="Path_44" data-name="Path 44" d="M40.6,24.524a.458.458,0,0,1-.353-.151.548.548,0,0,1,0-.756l1.765-1.765a.535.535,0,0,1,.756.756l-1.815,1.765A.458.458,0,0,1,40.6,24.524Z" transform="translate(-40.1 -21.7)" fill="#046ebb" stroke="#046ebb" stroke-width="0.75"/>
            </g>
            <g id="Group_51" data-name="Group 51" transform="translate(2.521 8.176)">
              <path id="Path_45" data-name="Path 45" d="M29.447,37.7h-.1a.521.521,0,0,1-.454-.605l.555-3.076a.436.436,0,0,1,.151-.3l1.765-1.765a.535.535,0,0,1,.756.756l-1.664,1.614-.5,2.925A.536.536,0,0,1,29.447,37.7Z" transform="translate(-28.885 -31.8)" fill="#046ebb" stroke="#046ebb" stroke-width="0.75"/>
            </g>
            <g id="Group_52" data-name="Group 52" transform="translate(0 9.883)">
              <path id="Path_46" data-name="Path 46" d="M24.4,36.806a.536.536,0,0,1-.5-.454.521.521,0,0,1,.454-.605l3.076-.555a.535.535,0,0,1,.151,1.059l-3.076.555Z" transform="translate(-23.885 -35.185)" fill="#046ebb" stroke="#046ebb" stroke-width="0.75"/>
            </g>
            <g id="Group_53" data-name="Group 53" transform="translate(9.933 2.521)">
              <path id="Path_47" data-name="Path 47" d="M44.1,22.206a.536.536,0,0,1-.5-.454.521.521,0,0,1,.454-.605l3.076-.555a.535.535,0,1,1,.151,1.059l-3.076.555Z" transform="translate(-43.585 -20.585)" fill="#046ebb" stroke="#046ebb" stroke-width="0.75"/>
            </g>
            <g id="Group_54" data-name="Group 54" transform="translate(9.883)">
              <path id="Path_48" data-name="Path 48" d="M44.047,19.727h-.1a.521.521,0,0,1-.454-.605l.555-3.076a.535.535,0,0,1,1.059.151l-.555,3.076A.536.536,0,0,1,44.047,19.727Z" transform="translate(-43.485 -15.585)" fill="#046ebb" stroke="#046ebb" stroke-width="0.75"/>
            </g>
          </g>
          <g id="Group_56" data-name="Group 56" transform="translate(5.077 5.077)">
            <path id="Path_49" data-name="Path 49" d="M34.806,29.212a2.706,2.706,0,0,1,0-5.412,2.706,2.706,0,1,1,0,5.412Zm0-4.415a1.709,1.709,0,1,0,1.709,1.709A1.7,1.7,0,0,0,34.806,24.8Z" transform="translate(-31.966 -23.632)" fill="#046ebb" stroke="#046ebb" stroke-width="0.75"/>
          </g>
        </g>
        <g id="Group_58" data-name="Group 58">
          <path id="Path_50" data-name="Path 50" d="M49.752,41.456h-35.5A.56.56,0,0,1,13.7,40.9V9.488A4.605,4.605,0,0,1,18.288,4.9h27.43a4.605,4.605,0,0,1,4.588,4.588V40.952A.518.518,0,0,1,49.752,41.456ZM14.759,40.4H49.2V9.488a3.54,3.54,0,0,0-3.53-3.53H18.288a3.54,3.54,0,0,0-3.53,3.53Z" transform="translate(-13.7 -4.9)" fill="#046ebb" stroke="#046ebb" stroke-width="0.75"/>
        </g>
        <g id="Group_62" data-name="Group 62" transform="translate(7.513 24.253)">
          <g id="Group_59" data-name="Group 59">
            <path id="Path_51" data-name="Path 51" d="M37.323,54.109H29.155a.555.555,0,1,1,0-1.109h8.168a.555.555,0,0,1,0,1.109Z" transform="translate(-28.6 -53)" fill="#046ebb" stroke="#046ebb" stroke-width="0.75"/>
          </g>
          <g id="Group_60" data-name="Group 60" transform="translate(0 3.076)">
            <path id="Path_52" data-name="Path 52" d="M37.323,60.209H29.155a.555.555,0,1,1,0-1.109h8.168a.555.555,0,0,1,0,1.109Z" transform="translate(-28.6 -59.1)" fill="#046ebb" stroke="#046ebb" stroke-width="0.75"/>
          </g>
          <g id="Group_61" data-name="Group 61" transform="translate(0 6.152)">
            <path id="Path_53" data-name="Path 53" d="M37.323,66.309H29.155a.555.555,0,1,1,0-1.109h8.168a.555.555,0,1,1,0,1.109Z" transform="translate(-28.6 -65.2)" fill="#046ebb" stroke="#046ebb" stroke-width="0.75"/>
          </g>
        </g>
        <g id="Group_75" data-name="Group 75" transform="translate(24.758 3.126)">
          <g id="Group_63" data-name="Group 63" transform="translate(-1.496 23.951)">
            <path id="Path_54" data-name="Path 54" d="M65.019,63.037a2.219,2.219,0,1,1,2.219-2.219A2.206,2.206,0,0,1,65.019,63.037Zm0-3.429a1.16,1.16,0,1,0,1.16,1.16A1.173,1.173,0,0,0,65.019,59.608Z" transform="translate(-62.8 -58.6)" fill="#046ebb" stroke="#046ebb" stroke-width="0.75"/>
          </g>
          <g id="Group_64" data-name="Group 64" transform="translate(0.168)">
            <path id="Path_55" data-name="Path 55" d="M66.655,36.059A.56.56,0,0,1,66.1,35.5V11.655a.555.555,0,1,1,1.109,0v23.9A.518.518,0,0,1,66.655,36.059Z" transform="translate(-66.1 -11.1)" fill="#046ebb" stroke="#046ebb" stroke-width="0.75"/>
          </g>
          <g id="Group_74" data-name="Group 74" transform="translate(3.479 2.076)">
            <g id="Group_65" data-name="Group 65" transform="translate(0 17.345)">
              <path id="Path_56" data-name="Path 56" d="M72.625,52.709h-2.37a.555.555,0,1,1,0-1.109h2.37a.555.555,0,1,1,0,1.109Z" transform="translate(-69.7 -51.6)" fill="#046ebb" stroke="#046ebb" stroke-width="0.75"/>
            </g>
            <g id="Group_66" data-name="Group 66" transform="translate(0 14.423)">
              <path id="Path_57" data-name="Path 57" d="M71.566,48.409H70.255a.555.555,0,0,1,0-1.109h1.311a.56.56,0,0,1,.555.555A.6.6,0,0,1,71.566,48.409Z" transform="translate(-69.7 -47.3)" fill="#046ebb" stroke="#046ebb" stroke-width="0.75"/>
            </g>
            <g id="Group_69" data-name="Group 69" transform="translate(0 11.673)">
              <path id="Path_60" data-name="Path 60" d="M72.625,35.509h-2.37a.555.555,0,1,1,0-1.109h2.37a.555.555,0,0,1,0,1.109Z" transform="translate(-69.7 -34.4)" fill="#046ebb" stroke="#046ebb" stroke-width="0.75"/>
            </g>
            <g id="Group_70" data-name="Group 70" transform="translate(0 8.803)">
              <path id="Path_61" data-name="Path 61" d="M71.566,31.209H70.255a.555.555,0,0,1,0-1.109h1.311a.555.555,0,0,1,0,1.109Z" transform="translate(-69.7 -30.1)" fill="#046ebb" stroke="#046ebb" stroke-width="0.75"/>
            </g>
            <g id="Group_71" data-name="Group 71" transform="translate(0 6.033)">
              <path id="Path_62" data-name="Path 62" d="M72.625,26.909h-2.37a.555.555,0,0,1,0-1.109h2.37a.555.555,0,0,1,0,1.109Z" transform="translate(-69.7 -25.8)" fill="#046ebb" stroke="#046ebb" stroke-width="0.75"/>
            </g>
            <g id="Group_72" data-name="Group 72" transform="translate(0 3.473)">
              <path id="Path_63" data-name="Path 63" d="M71.566,22.609H70.255a.555.555,0,0,1,0-1.109h1.311a.56.56,0,0,1,.555.555A.6.6,0,0,1,71.566,22.609Z" transform="translate(-69.7 -21.5)" fill="#046ebb" stroke="#046ebb" stroke-width="0.75"/>
            </g>
            <g id="Group_73" data-name="Group 73" transform="translate(0 0.803)">
              <path id="Path_64" data-name="Path 64" d="M72.625,18.309h-2.37a.555.555,0,0,1,0-1.109h2.37a.555.555,0,0,1,0,1.109Z" transform="translate(-69.7 -17.2)" fill="#046ebb" stroke="#046ebb" stroke-width="0.75"/>
            </g>
          </g>
        </g>
      </g>
      <g id="Group_77" data-name="Group 77" transform="translate(6.908 35.498)">
        <path id="Path_65" data-name="Path 65" d="M36.168,75.3H.4c-.219,0-.4.252-.4.555v4.034c0,2.975,1.755,5.4,3.913,5.4H32.694c2.158,0,3.913-2.42,3.913-5.4V75.855C36.57,75.552,36.388,75.3,36.168,75.3ZM.768,76.359H35.8v3.53c0,2.37-1.39,4.336-3.145,4.336H3.913c-1.719,0-3.145-1.916-3.145-4.336v-3.53Z" transform="translate(0 -75.3)" fill="#046ebb" stroke="#046ebb" stroke-width="0.75"/>
      </g>
    </g>
  </g>
</svg>
